<?xml version="1.0"?>
<svg xmlns:rdf="http://www.w3.org/1999/02/22-rdf-syntax-ns#" xmlns="http://www.w3.org/2000/svg" xmlns:cc="http://creativecommons.org/ns#" xmlns:dc="http://purl.org/dc/elements/1.1/" xmlns:svg="http://www.w3.org/2000/svg" id="svg5758" viewBox="0 0 64 64" version="1.1">
  <title id="title5893">Cart small</title>
  <g id="layer1" transform="translate(0,16)">
    <g id="g5509" transform="translate(-311.65 -878.68)">
      <g id="g5533" transform="translate(-132 2)">
        <path id="path4037" style="color:#000000" d="m22 200.5c-2.4853 0-4.5-2.0147-4.5-4.5 0-2.0367 1.368-3.8195 3.3353-4.3467" transform="matrix(.6 0 0 .6 451.05 782.78)" stroke="#666" stroke-linecap="square" stroke-width="5" fill="none"/>
        <path id="path4039" stroke="#666" stroke-width="3" fill="none" d="m495.45 903.08h-31.2"/>
        <path id="path4041" stroke="#666" stroke-width="2" fill="none" d="m494.25 894.68-30 3.6-4.8-21-1.2-3.6h-2.7l-0.3-2h6l1.2 5h33z"/>
        <path id="path4043" stroke-width="1.9" transform="matrix(.18360 0 0 .18360 465.76 855.89)" fill="#666" d="m17.919 296.26c0 2.7073-2.1947 4.9021-4.9021 4.9021-2.7073 0-4.9021-2.1947-4.9021-4.9021 0-2.7073 2.1947-4.9021 4.9021-4.9021 2.7073 0 4.9021 2.1947 4.9021 4.9021z"/>
        <path id="path4045" d="m27.723 296.26c0 8.122-6.5842 14.706-14.706 14.706-8.122 0-14.706-6.5842-14.706-14.706 0-8.122 6.5842-14.706 14.706-14.706 8.122 0 14.706 6.5842 14.706 14.706z" transform="matrix(.18360 0 0 .18360 465.76 855.89)" stroke="#666" stroke-width="9.8042" fill="none"/>
        <path id="path4047" stroke-width="1.9" transform="matrix(.18360 0 0 .18360 487.36 855.89)" fill="#666" d="m17.919 296.26c0 2.7073-2.1947 4.9021-4.9021 4.9021-2.7073 0-4.9021-2.1947-4.9021-4.9021 0-2.7073 2.1947-4.9021 4.9021-4.9021 2.7073 0 4.9021 2.1947 4.9021 4.9021z"/>
        <path id="path4049" d="m27.723 296.26c0 8.122-6.5842 14.706-14.706 14.706-8.122 0-14.706-6.5842-14.706-14.706 0-8.122 6.5842-14.706 14.706-14.706 8.122 0 14.706 6.5842 14.706 14.706z" transform="matrix(.18360 0 0 .18360 487.36 855.89)" stroke="#666" stroke-width="9.8042" fill="none"/>
        <path id="path4051" stroke="#666" stroke-width="1.25" fill="none" d="m478.05 873.38-13.8 23.4"/>
        <path id="path4053" stroke="#666" fill="none" d="m460.35 880.18h34.2"/>
        <path id="path4055" stroke="#666" fill="none" d="m494.25 884.18h-33.3"/>
        <path id="path4057" stroke="#666" fill="none" d="m462.15 888.18h31.8"/>
        <path id="path4059" stroke="#666" fill="none" d="m493.95 892.18h-31.2"/>
        <path id="path4061" stroke="#666" fill="none" d="m463.35 896.18h18.1"/>
        <path id="path4065" stroke="#666" fill="none" d="m488.15 876.68v18.6"/>
        <path id="path4067" stroke="#666" fill="none" d="m484.15 876.68v19.2"/>
        <path id="path4069" stroke="#666" fill="none" d="m480.15 876.68v19.2"/>
        <path id="path4071" stroke="#666" fill="none" d="m476.15 876.68v19.8"/>
        <path id="path4073" stroke="#666" fill="none" d="m472.15 876.68v20.1"/>
        <path id="path4075" stroke="#666" fill="none" d="m468.15 876.68v20.4"/>
        <path id="path4077" stroke="#666" fill="none" d="m464.15 876.68v18.3"/>
        <path id="path4079" stroke="#666" fill="none" d="m492.15 876.68v17.4"/>
      </g>
    </g>
  </g>
  <metadata>
    <rdf:RDF>
      <cc:Work>
        <dc:format>image/svg+xml</dc:format>
        <dc:type rdf:resource="http://purl.org/dc/dcmitype/StillImage"/>
        <cc:license rdf:resource="http://creativecommons.org/licenses/publicdomain/"/>
        <dc:publisher>
          <cc:Agent rdf:about="http://openclipart.org/">
            <dc:title>Openclipart</dc:title>
          </cc:Agent>
        </dc:publisher>
        <dc:title>Cart small</dc:title>
        <dc:date>2010-10-09T19:29:22</dc:date>
        <dc:description>Small sized shopping cart.</dc:description>
        <dc:source>http://openclipart.org/detail/89305/cart-small-by-martins.bruvelis</dc:source>
        <dc:creator>
          <cc:Agent>
            <dc:title>martins.bruvelis</dc:title>
          </cc:Agent>
        </dc:creator>
        <dc:subject>
          <rdf:Bag>
            <rdf:li>cart</rdf:li>
            <rdf:li>clip art</rdf:li>
            <rdf:li>clipart</rdf:li>
            <rdf:li>e-commerce</rdf:li>
            <rdf:li>grey</rdf:li>
            <rdf:li>icon</rdf:li>
            <rdf:li>shopping</rdf:li>
            <rdf:li>shopping cart</rdf:li>
            <rdf:li>symbol</rdf:li>
            <rdf:li>trolley</rdf:li>
          </rdf:Bag>
        </dc:subject>
      </cc:Work>
      <cc:License rdf:about="http://creativecommons.org/licenses/publicdomain/">
        <cc:permits rdf:resource="http://creativecommons.org/ns#Reproduction"/>
        <cc:permits rdf:resource="http://creativecommons.org/ns#Distribution"/>
        <cc:permits rdf:resource="http://creativecommons.org/ns#DerivativeWorks"/>
      </cc:License>
    </rdf:RDF>
  </metadata>
</svg>
