<!DOCTYPE svg PUBLIC "-//W3C//DTD SVG 1.1//EN" "http://www.w3.org/Graphics/SVG/1.1/DTD/svg11.dtd">

<!-- Uploaded to: SVG Repo, www.svgrepo.com, Transformed by: SVG Repo Mixer Tools -->
<svg version="1.1" id="Layer_1" xmlns="http://www.w3.org/2000/svg" xmlns:xlink="http://www.w3.org/1999/xlink" viewBox="0 0 512 512" xml:space="preserve" width="40px" height="35px" fill="#000000">

<g id="SVGRepo_bgCarrier" stroke-width="0"/>

<g id="SVGRepo_tracerCarrier" stroke-linecap="round" stroke-linejoin="round"/>

<g id="SVGRepo_iconCarrier"> <path style="fill:#E5E5E5;" d="M405.466,436.207H165.896c-8.781,0-15.901-7.119-15.901-15.901V53.532 c0-8.781,7.119-15.901,15.901-15.901h239.569c8.781,0,15.901,7.119,15.901,15.901v366.774 C421.366,429.088,414.247,436.207,405.466,436.207z"/> <g> <path style="fill:#B2B2B2;" d="M396.724,352.34c-32.036,0-59.1,28.697-59.1,62.666c0,6.759,1.495,13.811,4.495,21.201h63.348 c8.781,0,15.901-7.119,15.901-15.901v-61.918C413.664,354.405,405.352,352.34,396.724,352.34z"/> <path style="fill:#B2B2B2;" d="M421.366,53.532c0-8.781-7.119-15.901-15.901-15.901H165.896c-8.781,0-15.901,7.119-15.901,15.901 v16.254h271.371V53.532z"/> </g> <g> <rect x="268.72" y="7.95" style="fill:#FB9D46;" width="33.921" height="80.563"/> <rect x="345.043" y="7.95" style="fill:#FB9D46;" width="33.921" height="80.563"/> <rect x="192.398" y="7.95" style="fill:#FB9D46;" width="33.921" height="80.563"/> </g> <path style="fill:#E24642;" d="M425.607,381.085c-29.681-29.681-72.083-3.547-72.083,33.921s72.083,89.043,72.083,89.043 s72.083-51.575,72.083-89.043S455.288,351.404,425.607,381.085z"/> <circle style="fill:#FB9D46;" cx="462.708" cy="409.706" r="15.901"/> <path style="fill:#C42725;" d="M378.965,400.29c0-12.24,4.527-23.27,11.656-31.54c-20.045,3.302-37.097,22.497-37.097,46.257 c0,37.468,72.083,89.043,72.083,89.043s9.604-6.873,21.797-17.419C432.768,475.561,378.965,432.663,378.965,400.29z"/> <rect x="48.232" y="63.072" style="fill:#FFD652;" width="67.843" height="373.135"/> <polygon style="fill:#FB9D46;" points="82.153,478.609 116.075,436.207 48.232,436.207 "/> <path style="fill:#458FDE;" d="M82.153,7.95c18.734,0,33.921,15.187,33.921,33.921v152.646H48.232V41.872 C48.232,23.138,63.419,7.95,82.153,7.95z"/> <circle style="fill:#89DCFC;" cx="89.574" cy="36.571" r="11.66"/> <rect x="48.232" y="63.072" style="fill:#FB9D46;" width="23.321" height="373.135"/> <path style="fill:#4F5AA8;" d="M93.814,10.008C90.178,8.676,86.25,7.95,82.153,7.95c-18.734,0-33.921,15.187-33.921,33.921v152.646 h23.321V41.872C71.553,27.235,80.824,14.763,93.814,10.008z"/> <path d="M378.965,156.886H268.72c-4.392,0-7.95,3.56-7.95,7.95s3.559,7.95,7.95,7.95h110.244c4.392,0,7.95-3.56,7.95-7.95 S383.357,156.886,378.965,156.886z"/> <path d="M378.965,241.689H268.72c-4.392,0-7.95,3.56-7.95,7.95s3.559,7.95,7.95,7.95h110.244c4.392,0,7.95-3.56,7.95-7.95 S383.357,241.689,378.965,241.689z"/> <path d="M378.965,326.493H268.72c-4.392,0-7.95,3.56-7.95,7.95c0,4.391,3.559,7.95,7.95,7.95h110.244c4.392,0,7.95-3.56,7.95-7.95 C386.915,330.052,383.357,326.493,378.965,326.493z"/> <path d="M234.269,147.876c0-4.391-3.559-7.95-7.95-7.95h-33.921c-4.392,0-7.95,3.56-7.95,7.95v33.921c0,4.391,3.559,7.95,7.95,7.95 h33.921c4.392,0,7.95-3.56,7.95-7.95V147.876z M218.369,173.847h-18.021v-18.021h18.021V173.847z"/> <path d="M234.269,232.679c0-4.391-3.559-7.95-7.95-7.95h-33.921c-4.392,0-7.95,3.56-7.95,7.95V266.6c0,4.391,3.559,7.95,7.95,7.95 h33.921c4.392,0,7.95-3.56,7.95-7.95V232.679z M218.369,258.65h-18.021v-18.021h18.021V258.65z"/> <path d="M226.319,309.532h-33.921c-4.392,0-7.95,3.56-7.95,7.95v33.921c0,4.391,3.559,7.95,7.95,7.95h33.921 c4.392,0,7.95-3.56,7.95-7.95v-33.921C234.269,313.092,230.711,309.532,226.319,309.532z M218.369,343.453h-18.021v-18.021h18.021 V343.453z"/> <path d="M472.378,363.906c-14.482-5.999-29.921-4.397-43.061,4.032V133.035c0-4.391-3.559-7.95-7.95-7.95 c-4.392,0-7.95,3.56-7.95,7.95v230.54c-11.934-4.706-25.074-4.328-37.111,1.463c-18.668,8.982-30.732,28.596-30.732,49.968 c0,4.189,0.751,8.624,2.188,13.251H165.896c-4.384,0-7.95-3.566-7.95-7.95V53.532c0-4.384,3.566-7.95,7.95-7.95h18.551v42.932 c0,4.391,3.559,7.95,7.95,7.95h33.921c4.392,0,7.95-3.56,7.95-7.95V45.582h26.501v42.932c0,4.391,3.559,7.95,7.95,7.95h33.921 c4.392,0,7.95-3.56,7.95-7.95V45.582h26.501v42.932c0,4.391,3.559,7.95,7.95,7.95h33.921c4.392,0,7.95-3.56,7.95-7.95V45.582h18.551 c4.384,0,7.95,3.566,7.95,7.95v34.981c0,4.391,3.559,7.95,7.95,7.95c4.392,0,7.95-3.56,7.95-7.95V53.532 c0-13.152-10.7-23.851-23.851-23.851h-18.551V7.95c0-4.391-3.559-7.95-7.95-7.95h-33.921c-4.392,0-7.95,3.56-7.95,7.95v21.731 h-26.501V7.95c0-4.391-3.559-7.95-7.95-7.95H268.72c-4.392,0-7.95,3.56-7.95,7.95v21.731h-26.501V7.95c0-4.391-3.559-7.95-7.95-7.95 h-33.921c-4.392,0-7.95,3.56-7.95,7.95v21.731h-18.551c-13.151,0-23.851,10.699-23.851,23.851v366.774 c0,13.152,10.7,23.851,23.851,23.851h189.142c19.612,32.974,63.983,64.956,65.942,66.358c1.383,0.99,3.004,1.485,4.626,1.485 c1.621,0,3.244-0.495,4.626-1.484c0.756-0.541,18.722-13.45,36.967-31.246c25.507-24.88,38.44-46.502,38.44-64.264 C505.64,392.683,492.274,372.147,472.378,363.906z M352.994,15.901h18.021v21.731v42.932h-18.021V37.631V15.901z M276.671,15.901 h18.021v21.731v42.932h-18.021V37.631V15.901z M200.348,15.901h18.021v21.731v42.932h-18.021V37.631V15.901z M425.637,494.146 c-12.247-9.376-45.617-36.366-58.913-61.637c0-0.001-0.001-0.002-0.001-0.003c-3.483-6.621-5.249-12.508-5.249-17.499 c0-15.301,8.527-29.29,21.724-35.64c11.119-5.349,23.223-3.844,33.206,4.13c0,0,0.001,0,0.001,0.001 c1.223,0.977,2.426,2.056,3.578,3.208c1.491,1.491,3.513,2.33,5.622,2.33c0.001,0,0.001,0,0.001,0c2.108,0,4.13-0.837,5.622-2.329 c10.171-10.172,22.953-13.125,35.064-8.11c14.023,5.809,23.446,20.442,23.446,36.41 C489.739,440.351,447.104,477.884,425.637,494.146z"/> <path d="M82.153,0C60.316,0,42.34,16.806,40.455,38.161H30.211C17.06,38.161,6.36,48.86,6.36,62.012v132.505 c0,4.391,3.559,7.95,7.95,7.95s7.95-3.56,7.95-7.95V62.012c0-4.384,3.566-7.95,7.95-7.95h10.07v140.456v89.043 c0,4.391,3.559,7.95,7.95,7.95s7.95-3.56,7.95-7.95v-81.093h51.942v225.789H56.182V323.843c0-4.391-3.559-7.95-7.95-7.95 s-7.95,3.56-7.95,7.95v112.364c0,1.805,0.615,3.556,1.743,4.966l32.179,40.224v22.652c0,4.391,3.559,7.95,7.95,7.95 c4.392,0,7.95-3.56,7.95-7.95v-22.652l32.179-40.224c1.127-1.41,1.743-3.161,1.743-4.966V194.518V41.872 C124.025,18.784,105.241,0,82.153,0z M56.182,41.872c0-14.32,11.65-25.971,25.971-25.971s25.971,11.651,25.971,25.971v144.696 H56.182V41.872z M82.153,465.882l-17.379-21.724h34.76L82.153,465.882z"/> </g>

</svg>